<svg width="12" height="12" viewBox="0 0 12 12" fill="none" xmlns="http://www.w3.org/2000/svg">
<path d="M0.0735125 0.845513C-0.107031 0.410309 0.35724 -0.0750837 0.802759 0.0845439C2.12262 0.557443 4.19505 1.1897 5.78532 1.16552C7.32007 1.14219 9.32109 0.493543 10.5536 0.0336401C10.9763 -0.124059 11.424 0.300538 11.2855 0.727626C10.8525 2.06247 10.2277 4.29898 10.2705 5.98065C10.308 7.45476 10.881 9.39021 11.2859 10.5858C11.428 11.0054 10.9999 11.4286 10.5785 11.2852C9.3805 10.8774 7.44271 10.3007 5.96473 10.2608C4.29912 10.2158 2.09579 10.8221 0.740958 11.2585C0.300079 11.4005 -0.13723 10.9261 0.0406618 10.5008C0.569953 9.23507 1.30166 7.19982 1.30017 5.62397C1.29872 4.0866 0.598599 2.11124 0.0735125 0.845513Z" fill="url(#paint0)"/>
<defs>
<linearGradient id="paint0" x1="0" y1="5.65686" x2="11.3137" y2="5.65686" gradientUnits="userSpaceOnUse">
<stop stop-color="#34D399"/>
<stop offset="0.634615" stop-color="#3B82F6"/>
<stop offset="1" stop-color="#17179A"/>
</linearGradient>
</defs>
</svg>
