<svg width="48" height="48" viewBox="0 0 48 48" fill="none" xmlns="http://www.w3.org/2000/svg">
<path d="M42.459 32.519C41.422 29.183 32.92 12.923 30.339 8.019L30.313 7.971C29.153 5.559 26.676 4 24 4C21.324 4 18.847 5.559 17.709 7.929L17.661 8.02C15.08 12.923 6.578 29.183 5.542 32.518C5.261 33.421 5 34.407 5 35.5C5 40.187 8.813 44 13.5 44C18.154 44 21.112 42.051 24 38.816C26.888 42.051 29.846 44 34.5 44C39.187 44 43 40.187 43 35.5C43 34.407 42.739 33.421 42.459 32.519ZM23.999 34.662C22.33 32.515 20 28.881 20 26C20 23.794 21.794 22 24 22C26.206 22 28 23.794 28 26C28 28.872 25.668 32.511 23.999 34.662ZM34.5 41C31.213 41 28.979 39.893 26.175 36.742C27.878 34.596 31 30.104 31 26C31 22.14 27.859 19 24 19C20.141 19 17 22.14 17 26C17 30.104 20.122 34.596 21.825 36.742C19.021 39.893 16.787 41 13.5 41C10.468 41 8 38.533 8 35.5C8 34.847 8.162 34.192 8.406 33.41C9.17 30.95 15.3 18.948 20.316 9.417L20.392 9.271C21.055 7.891 22.471 7 24 7C25.529 7 26.945 7.891 27.615 9.285L27.683 9.417C32.7 18.948 38.83 30.95 39.595 33.411C39.838 34.192 40 34.847 40 35.5C40 38.533 37.532 41 34.5 41Z" fill="#FF5252"/>
</svg>
