<svg width="16" height="16" viewBox="0 0 16 16" fill="none" xmlns="http://www.w3.org/2000/svg">
<path d="M14.3733 7.16L13.4733 6.10667C13.3067 5.90667 13.1667 5.53333 13.1667 5.26667V4.13333C13.1667 3.42667 12.5867 2.84667 11.88 2.84667H10.7467C10.48 2.84667 10.1 2.70667 9.9 2.54L8.84667 1.64C8.38667 1.24667 7.63334 1.24667 7.17334 1.64L6.10667 2.54C5.90667 2.70667 5.53334 2.84667 5.26667 2.84667H4.11334C3.40667 2.84667 2.82667 3.42667 2.82667 4.13333V5.26667C2.82667 5.52667 2.69334 5.9 2.52667 6.1L1.62667 7.16C1.24 7.62667 1.24 8.37333 1.62667 8.82667L2.52667 9.88667C2.69334 10.08 2.82667 10.46 2.82667 10.72V11.86C2.82667 12.5667 3.40667 13.1467 4.11334 13.1467H5.27334C5.53334 13.1467 5.91334 13.2867 6.11334 13.4533L7.16667 14.3533C7.62667 14.7467 8.38 14.7467 8.84 14.3533L9.89334 13.4533C10.0933 13.2867 10.4667 13.1467 10.7333 13.1467H11.8667C12.5733 13.1467 13.1533 12.5667 13.1533 11.86V10.7267C13.1533 10.46 13.2933 10.0867 13.46 9.88667L14.36 8.83333C14.7667 8.38 14.7667 7.62667 14.3733 7.16ZM9.87334 10.8267L9.22 9.36C9.2 9.36 9.18 9.37333 9.16 9.37333H6.82667C6.80667 9.37333 6.78667 9.36667 6.76667 9.36L6.11334 10.8267L5.2 10.42L7.53334 5.16667H8.44667L10.78 10.42L9.87334 10.8267Z" fill="#010101"/>
<path d="M7.21338 8.37333H8.78671L8.00005 6.60666L7.21338 8.37333Z" fill="#010101"/>
</svg>
