<svg width="16" height="16" viewBox="0 0 16 16" fill="none" xmlns="http://www.w3.org/2000/svg">
<path d="M7.16667 1.63323C7.63334 1.23989 8.38667 1.23989 8.84 1.63323L9.89334 2.53323C10.0933 2.69989 10.4733 2.83989 10.74 2.83989H11.8733C12.58 2.83989 13.16 3.41989 13.16 4.12656V5.25989C13.16 5.52656 13.3 5.89989 13.4667 6.09989L14.3667 7.15323C14.76 7.61989 14.76 8.37323 14.3667 8.82656L13.4667 9.87989C13.3 10.0799 13.16 10.4532 13.16 10.7199V11.8532C13.16 12.5599 12.58 13.1399 11.8733 13.1399H10.74C10.4733 13.1399 10.1 13.2799 9.9 13.4466L8.84667 14.3466C8.38 14.7399 7.62667 14.7399 7.17334 14.3466L6.12 13.4466C5.92 13.2799 5.54 13.1399 5.28 13.1399H4.11334C3.40667 13.1399 2.82667 12.5599 2.82667 11.8532V10.7132C2.82667 10.4532 2.69334 10.0732 2.52667 9.87989L1.62667 8.81989C1.24 8.35989 1.24 7.61323 1.62667 7.15323L2.52667 6.09323C2.69334 5.89323 2.82667 5.51989 2.82667 5.25989V4.13323C2.82667 3.42656 3.40667 2.84656 4.11334 2.84656H5.26667C5.53334 2.84656 5.90667 2.70656 6.10667 2.53989L7.16667 1.63323Z" stroke="#58586C" stroke-width="1.5" stroke-linecap="round" stroke-linejoin="round"/>
<path d="M5.66663 10.6267L7.99996 5.37338L10.3333 10.6267" stroke="#58586C" stroke-width="1.5" stroke-linejoin="bevel"/>
<path d="M9.16671 8.87338H6.83337" stroke="#58586C" stroke-width="1.5" stroke-linecap="round" stroke-linejoin="round"/>
</svg>
