<svg width="16" height="16" viewBox="0 0 16 16" fill="none" xmlns="http://www.w3.org/2000/svg">
<path d="M10.5199 1.33334H5.47992C2.95992 1.33334 2.33325 2.00668 2.33325 4.69334V12.2C2.33325 13.9733 3.30659 14.3933 4.48659 13.1267L4.49325 13.12C5.03992 12.54 5.87325 12.5867 6.34659 13.22L7.01992 14.12C7.55992 14.8333 8.43325 14.8333 8.97325 14.12L9.64659 13.22C10.1266 12.58 10.9599 12.5333 11.5066 13.12C12.6933 14.3867 13.6599 13.9667 13.6599 12.1933V4.69334C13.6666 2.00668 13.0399 1.33334 10.5199 1.33334ZM9.99992 7.83334H5.99992C5.72659 7.83334 5.49992 7.60668 5.49992 7.33334C5.49992 7.06001 5.72659 6.83334 5.99992 6.83334H9.99992C10.2733 6.83334 10.4999 7.06001 10.4999 7.33334C10.4999 7.60668 10.2733 7.83334 9.99992 7.83334ZM10.6666 5.16668H5.33325C5.05992 5.16668 4.83325 4.94001 4.83325 4.66668C4.83325 4.39334 5.05992 4.16668 5.33325 4.16668H10.6666C10.9399 4.16668 11.1666 4.39334 11.1666 4.66668C11.1666 4.94001 10.9399 5.16668 10.6666 5.16668Z" fill="#010101"/>
</svg>
