<svg width="48" height="48" viewBox="0 0 48 48" fill="none" xmlns="http://www.w3.org/2000/svg">
<g clip-path="url(#clip0_37421_2499)">
<path fill-rule="evenodd" clip-rule="evenodd" d="M48 9.21599C48 4.12966 43.9596 0.000213623 38.9851 0.000213623H9.0148C4.04042 0.000213623 0 4.12966 0 9.21599V38.784C0 43.869 4.04042 47.9998 9.01484 47.9998H38.9852C43.9596 47.9998 48 43.869 48 38.784L48 9.21599Z" fill="#0C3B7C"/>
<path fill-rule="evenodd" clip-rule="evenodd" d="M0.00167847 29.8199H23.9748V47.9998H0.00169604L0.00167847 29.8199Z" fill="#0C3B7C"/>
<path d="M21.8149 31.7717L17.9489 31.7677V27.041C17.9489 26.0311 18.332 25.5055 19.1772 25.3854H21.8149C23.696 25.3854 24.9128 26.5981 24.9128 28.5608C24.9128 30.5767 23.7268 31.7697 21.8149 31.7717ZM17.9489 19.0228V17.7786C17.9489 16.6899 18.3994 16.1722 19.3871 16.1052H21.3663C23.0626 16.1052 24.0791 17.1427 24.0791 18.881C24.0791 20.2039 23.3822 21.7493 21.428 21.7493H17.9489V19.0228ZM26.7515 23.7396L26.0526 23.338L26.6629 22.8045C27.3734 22.1804 28.5632 20.7768 28.5632 18.3554C28.5632 14.6465 25.7503 12.2546 21.3971 12.2546H16.4298V12.2526H15.8637C14.5738 12.3018 13.5399 13.3747 13.5264 14.7016V35.7464H21.4953C26.3337 35.7464 29.4566 33.0532 29.4566 28.8817C29.4566 26.6355 28.4477 24.7161 26.7515 23.7396Z" fill="white"/>
<path d="M31.532 32.8392C31.532 31.2316 32.8001 29.931 34.3625 29.931C35.9288 29.931 37.2028 31.2316 37.2028 32.8392C37.2028 34.4448 35.9288 35.7475 34.3624 35.7475C32.8001 35.7475 31.532 34.4448 31.532 32.8392Z" fill="#00BAFC"/>
</g>
<defs>
<clipPath id="clip0_37421_2499">
<rect width="48" height="48" fill="white"/>
</clipPath>
</defs>
</svg>
