<svg width="81" height="23" viewBox="0 0 81 23" fill="none" xmlns="http://www.w3.org/2000/svg">
<path d="M71.5614 22.9746L73.4974 17.2309L73.914 16.4946L77.394 5.27728H80.5308L74.6492 22.9746H71.5614ZM72.1496 17.9673L67.7139 5.27728H70.8262L74.2816 15.8318H75.1394L74.9433 17.9673H72.1496Z" fill="white"/>
<path d="M63.4913 18.0655V0.613647H66.5301V18.0655H63.4913Z" fill="white"/>
<path d="M58.3104 18.0655V10.4073C58.3104 9.45818 58.0899 8.75455 57.6487 8.29636C57.2076 7.83818 56.6195 7.60909 55.8843 7.60909C55.051 7.60909 54.3812 7.88727 53.8747 8.44364C53.3846 8.98364 53.1395 9.72818 53.1395 10.6773V18.0655H50.1007V5.27727H52.9435V6.99545H52.968C53.3274 6.35727 53.8257 5.86636 54.4629 5.52273C55.1001 5.16273 55.8598 4.98273 56.742 4.98273C57.6569 4.98273 58.4575 5.16273 59.1437 5.52273C59.8298 5.88273 60.369 6.43091 60.7611 7.16727C61.1532 7.90364 61.3492 8.85273 61.3492 10.0145V18.0655H58.3104Z" fill="white"/>
<path d="M44.7753 18.0655V5.27727H47.8141V18.0655H44.7753ZM46.3192 3.68182C45.7801 3.68182 45.3308 3.50182 44.9714 3.14182C44.6283 2.78182 44.4567 2.34818 44.4567 1.84091C44.4567 1.33364 44.6283 0.9 44.9714 0.54C45.3308 0.18 45.7801 0 46.3192 0C46.842 0 47.275 0.18 47.6181 0.54C47.9775 0.9 48.1572 1.33364 48.1572 1.84091C48.1572 2.34818 47.9775 2.78182 47.6181 3.14182C47.275 3.50182 46.842 3.68182 46.3192 3.68182Z" fill="white"/>
<path d="M36.651 15.8318C37.2882 15.8318 37.8518 15.6764 38.3419 15.3655C38.8321 15.0382 39.216 14.5718 39.4937 13.9664C39.7878 13.3446 39.9349 12.5755 39.9349 11.6591C39.9349 10.7591 39.7878 10.0064 39.4937 9.40092C39.216 8.7791 38.8321 8.31274 38.3419 8.00183C37.8518 7.67456 37.2882 7.51092 36.651 7.51092C36.0138 7.51092 35.442 7.67456 34.9355 8.00183C34.4454 8.31274 34.0533 8.7791 33.7592 9.40092C33.4815 10.0064 33.3426 10.7591 33.3426 11.6591C33.3426 12.5755 33.4815 13.3446 33.7592 13.9664C34.0369 14.5718 34.429 15.0382 34.9355 15.3655C35.442 15.6764 36.0138 15.8318 36.651 15.8318ZM30.4753 18.0655V0.613647H33.5141V7.04456H33.5386C33.8164 6.57001 34.1595 6.18547 34.5679 5.89092C34.9927 5.58001 35.4502 5.35092 35.9403 5.20365C36.4304 5.05637 36.9369 4.98274 37.4597 4.98274C38.5543 4.98274 39.5183 5.25274 40.3515 5.79274C41.201 6.33274 41.8627 7.10183 42.3365 8.10001C42.8266 9.09819 43.0717 10.2927 43.0717 11.6836C43.0717 13.0582 42.8266 14.2446 42.3365 15.2427C41.8464 16.2409 41.1765 17.01 40.327 17.55C39.4774 18.09 38.5217 18.36 37.4597 18.36C36.8879 18.36 36.3406 18.2782 35.8178 18.1146C35.2949 17.9673 34.8212 17.73 34.3964 17.4027C33.9716 17.0755 33.6285 16.6582 33.3671 16.1509H33.3426V18.0655H30.4753Z" fill="white"/>
<path d="M21.53 18.36C20.2393 18.36 19.1937 18.0245 18.3932 17.3536C17.5926 16.6827 17.1924 15.7909 17.1924 14.6782C17.1924 13.5982 17.5518 12.7227 18.2706 12.0518C19.0058 11.3645 20.0188 10.9064 21.3095 10.6773L26.2843 9.69545V11.6591L22.3878 12.4936C21.7016 12.6409 21.1706 12.8618 20.7948 13.1564C20.4354 13.4509 20.2557 13.8764 20.2557 14.4327C20.2557 14.9564 20.4354 15.3655 20.7948 15.66C21.1706 15.9545 21.6689 16.1018 22.2897 16.1018C22.8615 16.1018 23.3599 15.9873 23.7846 15.7582C24.2094 15.5127 24.5362 15.1691 24.7649 14.7273C25.01 14.2855 25.1325 13.7864 25.1325 13.23V9.62182C25.1325 8.90182 24.9364 8.34545 24.5443 7.95273C24.1686 7.54364 23.6131 7.33909 22.8779 7.33909C22.208 7.33909 21.6689 7.51091 21.2605 7.85455C20.852 8.18182 20.5661 8.65636 20.4027 9.27818L17.5109 8.66455C17.7887 7.53545 18.4095 6.64364 19.3734 5.98909C20.3374 5.31818 21.5382 4.98273 22.9759 4.98273C24.7241 4.98273 26.0229 5.41636 26.8725 6.28364C27.722 7.13455 28.1468 8.31273 28.1468 9.81818V15.5864L29.0781 18.0655H25.9412L25.3776 16.47H25.3531C24.9773 17.0755 24.4627 17.5418 23.8091 17.8691C23.1556 18.1964 22.3959 18.36 21.53 18.36Z" fill="white"/>
<path d="M8.43028 18.4827C6.76383 18.4827 5.29343 18.1064 4.01909 17.3536C2.74474 16.6009 1.75631 15.5455 1.05378 14.1873C0.351262 12.8291 0 11.2418 0 9.42547C0 8.05092 0.196053 6.81547 0.588159 5.7191C0.996602 4.60638 1.56842 3.6491 2.30362 2.84729C3.05516 2.04547 3.94557 1.43183 4.97484 1.00638C6.02046 0.580922 7.1641 0.368195 8.40577 0.368195C9.74547 0.368195 10.9218 0.564558 11.9347 0.957285C12.9477 1.35001 13.7891 1.93092 14.4589 2.70001C15.1451 3.4691 15.6516 4.41819 15.9783 5.54728L12.8905 6.5291C12.5474 5.43274 12.0001 4.60638 11.2485 4.05001C10.497 3.49365 9.54124 3.21547 8.38126 3.21547C7.35198 3.21547 6.46158 3.4691 5.71004 3.97638C4.95851 4.46729 4.37852 5.1791 3.97007 6.11183C3.57797 7.02819 3.38191 8.13274 3.38191 9.42547C3.38191 10.7018 3.57797 11.8064 3.97007 12.7391C4.37852 13.6555 4.95851 14.3673 5.71004 14.8746C6.47792 15.3818 7.37649 15.6355 8.40577 15.6355C9.54941 15.6355 10.497 15.3573 11.2485 14.8009C12.0001 14.2282 12.5556 13.3936 12.915 12.2973L15.9783 13.2546C15.6352 14.3836 15.1206 15.3409 14.4344 16.1264C13.7646 16.8955 12.9313 17.4846 11.9347 17.8936C10.9381 18.2864 9.76997 18.4827 8.43028 18.4827Z" fill="white"/>
</svg>
