<svg width="81" height="23" viewBox="0 0 81 23" fill="none" xmlns="http://www.w3.org/2000/svg">
<path d="M71.5615 22.9746L73.4975 17.2309L73.9141 16.4946L77.3941 5.27728H80.5309L74.6493 22.9746H71.5615ZM72.1497 17.9673L67.714 5.27728H70.8263L74.2817 15.8318H75.1395L74.9434 17.9673H72.1497Z" fill="#010101"/>
<path d="M63.4914 18.0655V0.613647H66.5302V18.0655H63.4914Z" fill="#010101"/>
<path d="M58.3105 18.0655V10.4073C58.3105 9.45818 58.09 8.75455 57.6488 8.29636C57.2077 7.83818 56.6196 7.60909 55.8844 7.60909C55.0511 7.60909 54.3813 7.88727 53.8748 8.44364C53.3847 8.98364 53.1396 9.72818 53.1396 10.6773V18.0655H50.1008V5.27727H52.9436V6.99545H52.9681C53.3275 6.35727 53.8258 5.86636 54.463 5.52273C55.1002 5.16273 55.8599 4.98273 56.7421 4.98273C57.657 4.98273 58.4576 5.16273 59.1437 5.52273C59.8299 5.88273 60.3691 6.43091 60.7612 7.16727C61.1533 7.90364 61.3493 8.85273 61.3493 10.0145V18.0655H58.3105Z" fill="#010101"/>
<path d="M44.7754 18.0655V5.27727H47.8142V18.0655H44.7754ZM46.3193 3.68182C45.7802 3.68182 45.3309 3.50182 44.9714 3.14182C44.6284 2.78182 44.4568 2.34818 44.4568 1.84091C44.4568 1.33364 44.6284 0.9 44.9714 0.54C45.3309 0.18 45.7802 0 46.3193 0C46.8421 0 47.2751 0.18 47.6182 0.54C47.9776 0.9 48.1573 1.33364 48.1573 1.84091C48.1573 2.34818 47.9776 2.78182 47.6182 3.14182C47.2751 3.50182 46.8421 3.68182 46.3193 3.68182Z" fill="#010101"/>
<path d="M36.6511 15.8318C37.2882 15.8318 37.8519 15.6764 38.342 15.3655C38.8322 15.0382 39.2161 14.5718 39.4938 13.9664C39.7879 13.3446 39.935 12.5755 39.935 11.6591C39.935 10.7591 39.7879 10.0064 39.4938 9.40092C39.2161 8.7791 38.8322 8.31274 38.342 8.00183C37.8519 7.67456 37.2882 7.51092 36.6511 7.51092C36.0139 7.51092 35.4421 7.67456 34.9356 8.00183C34.4455 8.31274 34.0534 8.7791 33.7593 9.40092C33.4815 10.0064 33.3427 10.7591 33.3427 11.6591C33.3427 12.5755 33.4815 13.3446 33.7593 13.9664C34.037 14.5718 34.4291 15.0382 34.9356 15.3655C35.4421 15.6764 36.0139 15.8318 36.6511 15.8318ZM30.4754 18.0655V0.613647H33.5142V7.04456H33.5387C33.8165 6.57001 34.1596 6.18547 34.568 5.89092C34.9928 5.58001 35.4502 5.35092 35.9404 5.20365C36.4305 5.05637 36.937 4.98274 37.4598 4.98274C38.5544 4.98274 39.5183 5.25274 40.3516 5.79274C41.2011 6.33274 41.8628 7.10183 42.3366 8.10001C42.8267 9.09819 43.0718 10.2927 43.0718 11.6836C43.0718 13.0582 42.8267 14.2446 42.3366 15.2427C41.8465 16.2409 41.1766 17.01 40.3271 17.55C39.4775 18.09 38.5217 18.36 37.4598 18.36C36.888 18.36 36.3407 18.2782 35.8178 18.1146C35.295 17.9673 34.8212 17.73 34.3965 17.4027C33.9717 17.0755 33.6286 16.6582 33.3672 16.1509H33.3427V18.0655H30.4754Z" fill="#010101"/>
<path d="M21.5301 18.36C20.2394 18.36 19.1938 18.0245 18.3933 17.3536C17.5927 16.6827 17.1924 15.7909 17.1924 14.6782C17.1924 13.5982 17.5519 12.7227 18.2707 12.0518C19.0059 11.3645 20.0189 10.9064 21.3096 10.6773L26.2844 9.69545V11.6591L22.3878 12.4936C21.7017 12.6409 21.1707 12.8618 20.7949 13.1564C20.4355 13.4509 20.2558 13.8764 20.2558 14.4327C20.2558 14.9564 20.4355 15.3655 20.7949 15.66C21.1707 15.9545 21.669 16.1018 22.2898 16.1018C22.8616 16.1018 23.3599 15.9873 23.7847 15.7582C24.2095 15.5127 24.5363 15.1691 24.765 14.7273C25.0101 14.2855 25.1326 13.7864 25.1326 13.23V9.62182C25.1326 8.90182 24.9365 8.34545 24.5444 7.95273C24.1687 7.54364 23.6132 7.33909 22.878 7.33909C22.2081 7.33909 21.669 7.51091 21.2605 7.85455C20.8521 8.18182 20.5662 8.65636 20.4028 9.27818L17.511 8.66455C17.7888 7.53545 18.4096 6.64364 19.3735 5.98909C20.3375 5.31818 21.5383 4.98273 22.976 4.98273C24.7241 4.98273 26.023 5.41636 26.8726 6.28364C27.7221 7.13455 28.1469 8.31273 28.1469 9.81818V15.5864L29.0782 18.0655H25.9413L25.3777 16.47H25.3531C24.9774 17.0755 24.4627 17.5418 23.8092 17.8691C23.1557 18.1964 22.396 18.36 21.5301 18.36Z" fill="#010101"/>
<path d="M8.43037 18.4827C6.76392 18.4827 5.29352 18.1063 4.01918 17.3536C2.74483 16.6009 1.7564 15.5454 1.05388 14.1873C0.351353 12.8291 9.15527e-05 11.2418 9.15527e-05 9.42544C9.15527e-05 8.05089 0.196144 6.81544 0.58825 5.71907C0.996694 4.60635 1.56852 3.64907 2.30371 2.84725C3.05525 2.04544 3.94566 1.4318 4.97494 1.00634C6.02055 0.580891 7.16419 0.368164 8.40586 0.368164C9.74556 0.368164 10.9219 0.564528 11.9348 0.957255C12.9478 1.34998 13.7891 1.93089 14.459 2.69998C15.1452 3.46907 15.6517 4.41816 15.9784 5.54725L12.8906 6.52907C12.5475 5.43271 12.0002 4.60635 11.2486 4.04998C10.4971 3.49362 9.54133 3.21544 8.38135 3.21544C7.35208 3.21544 6.46167 3.46907 5.71013 3.97635C4.9586 4.46725 4.37861 5.17907 3.97016 6.1118C3.57806 7.02816 3.382 8.13271 3.382 9.42544C3.382 10.7018 3.57806 11.8063 3.97016 12.7391C4.37861 13.6554 4.9586 14.3673 5.71013 14.8745C6.47801 15.3818 7.37658 15.6354 8.40586 15.6354C9.5495 15.6354 10.4971 15.3573 11.2486 14.8009C12.0002 14.2282 12.5556 13.3936 12.9151 12.2973L15.9784 13.2545C15.6353 14.3836 15.1207 15.3409 14.4345 16.1263C13.7646 16.8954 12.9314 17.4845 11.9348 17.8936C10.9382 18.2863 9.77006 18.4827 8.43037 18.4827Z" fill="#010101"/>
</svg>
