<svg width="16" height="16" viewBox="0 0 16 16" fill="none" xmlns="http://www.w3.org/2000/svg">
<path d="M5.5 3.83334C5.22667 3.83334 5 3.60668 5 3.33334V1.33334C5 1.06001 5.22667 0.833344 5.5 0.833344C5.77333 0.833344 6 1.06001 6 1.33334V3.33334C6 3.60668 5.77333 3.83334 5.5 3.83334Z" fill="#010101"/>
<path d="M10.5 3.83334C10.2267 3.83334 10 3.60668 10 3.33334V1.33334C10 1.06001 10.2267 0.833344 10.5 0.833344C10.7733 0.833344 11 1.06001 11 1.33334V3.33334C11 3.60668 10.7733 3.83334 10.5 3.83334Z" fill="#010101"/>
<path d="M13.0467 3.00001C12.6067 2.67334 11.9734 2.98668 11.9734 3.54001V3.60668C11.9734 4.38668 11.4134 5.10668 10.6334 5.18668C9.73341 5.28001 8.97341 4.57334 8.97341 3.69334V3.00001C8.97341 2.63334 8.67342 2.33334 8.30675 2.33334H7.69341C7.32675 2.33334 7.02675 2.63334 7.02675 3.00001V3.69334C7.02675 4.22001 6.75342 4.68668 6.34008 4.94668C6.28008 4.98668 6.21342 5.02001 6.14675 5.05334C6.08675 5.08668 6.02008 5.11334 5.94675 5.13334C5.86675 5.16001 5.78008 5.18001 5.68675 5.18668C5.58008 5.20001 5.47341 5.20001 5.36675 5.18668C5.27341 5.18001 5.18675 5.16001 5.10675 5.13334C5.04008 5.11334 4.97341 5.08668 4.90675 5.05334C4.84008 5.02001 4.77341 4.98668 4.71341 4.94668C4.29341 4.65334 4.02675 4.14668 4.02675 3.60668V3.54001C4.02675 3.02668 3.48008 2.72001 3.04675 2.94001C3.04008 2.94668 3.03341 2.94668 3.02675 2.95334C3.00008 2.96668 2.98008 2.98001 2.95341 3.00001C2.93341 3.02001 2.90675 3.03334 2.88675 3.05334C2.70008 3.20001 2.53341 3.36668 2.39341 3.54668C2.32008 3.62668 2.26008 3.71334 2.20675 3.80001C2.20008 3.80668 2.19341 3.81334 2.18675 3.82668C2.12675 3.91334 2.07341 4.01334 2.02675 4.10668C2.01341 4.12001 2.00675 4.12668 2.00675 4.14001C1.96675 4.22001 1.92675 4.30001 1.90008 4.38668C1.88008 4.42001 1.87341 4.44668 1.86008 4.48001C1.82008 4.58001 1.79341 4.68001 1.76675 4.78001C1.74008 4.87334 1.72008 4.97334 1.70675 5.07334C1.69341 5.14668 1.68675 5.22001 1.68008 5.30001C1.67341 5.39334 1.66675 5.48668 1.66675 5.58001V11.42C1.66675 13.2133 3.12008 14.6667 4.91341 14.6667H11.0867C12.8801 14.6667 14.3334 13.2133 14.3334 11.42V5.58001C14.3334 4.52001 13.8267 3.59334 13.0467 3.00001ZM8.00008 12.1667C6.96675 12.1667 6.33342 11.6533 6.33342 10.8267C6.33342 10.3733 6.56675 9.98001 6.97341 9.74668C6.68008 9.54001 6.48675 9.23334 6.48675 8.81334C6.48675 7.94668 7.18008 7.50001 8.00008 7.50001C8.82008 7.50001 9.50675 7.94668 9.50675 8.81334C9.50675 9.23334 9.32008 9.54001 9.02008 9.74668C9.43341 9.98001 9.66675 10.3733 9.66675 10.8267C9.66675 11.6533 9.02675 12.1667 8.00008 12.1667Z" fill="#010101"/>
<path d="M10.3334 10V8.66668C10.3334 8.22223 10.2667 7.33334 10.0001 7.33334C9.66675 7.33334 9.66675 7.00001 9.33342 7.00001H7.00008C6.46675 7.00001 6.11119 7.22223 6.00008 7.33334L5.66675 8.33334C5.44453 8.8889 5.00008 10.0667 5.00008 10.3333C5.00008 10.6 4.77786 11.1111 4.66675 11.3333L5.00008 12.3333L6.33342 12.6667C6.88897 12.5556 8.06675 12.3333 8.33342 12.3333C8.60008 12.3333 9.55564 11.8889 10.0001 11.6667L10.3334 10Z" fill="#010101"/>
</svg>
