<svg width="16" height="16" viewBox="0 0 16 16" fill="none" xmlns="http://www.w3.org/2000/svg">
<path d="M14.2 8.15332H11.88C11.2267 8.15332 10.6467 8.51332 10.3534 9.09999L9.79337 10.2067C9.66004 10.4733 9.39337 10.64 9.10004 10.64H6.91337C6.70671 10.64 6.41337 10.5933 6.22004 10.2067L5.66004 9.10665C5.36671 8.52665 4.78004 8.15999 4.13337 8.15999H1.80004C1.54004 8.15999 1.33337 8.36665 1.33337 8.62665V10.8C1.33337 13.22 2.78671 14.6667 5.21337 14.6667H10.8C13.0867 14.6667 14.4934 13.4133 14.6667 11.1867V8.61999C14.6667 8.36665 14.46 8.15332 14.2 8.15332Z" fill="#010101"/>
<path d="M14.6667 5.20668V7.23334C14.52 7.18001 14.36 7.15334 14.2 7.15334H11.88C10.8467 7.15334 9.92004 7.72668 9.46004 8.64668L8.96004 9.63334H7.05337L6.55337 8.65334C6.09337 7.72668 5.16671 7.15334 4.13337 7.15334H1.80004C1.64004 7.15334 1.48004 7.18001 1.33337 7.23334V5.20668C1.33337 2.78001 2.78004 1.33334 5.20671 1.33334H10.7934C13.22 1.33334 14.6667 2.78001 14.6667 5.20668Z" fill="#010101"/>
</svg>
