<svg width="16" height="16" viewBox="0 0 16 16" fill="none" xmlns="http://www.w3.org/2000/svg">
<path d="M6.00001 14.6666H10C13.3333 14.6666 14.6667 13.3333 14.6667 9.99992V5.99992C14.6667 2.66659 13.3333 1.33325 10 1.33325H6.00001C2.66668 1.33325 1.33334 2.66659 1.33334 5.99992V9.99992C1.33334 13.3333 2.66668 14.6666 6.00001 14.6666Z" stroke="#58586C" stroke-width="1.5" stroke-linecap="round" stroke-linejoin="round"/>
<path d="M1.33334 8.66658H3.84001C4.34668 8.66658 4.80668 8.95325 5.03334 9.40658L5.62668 10.5999C6.00001 11.3332 6.66668 11.3332 6.82668 11.3332H9.18001C9.68668 11.3332 10.1467 11.0466 10.3733 10.5932L10.9667 9.39991C11.1933 8.94658 11.6533 8.65991 12.16 8.65991H14.6533" stroke="#58586C" stroke-width="1.5" stroke-linecap="round" stroke-linejoin="round"/>
</svg>
