<svg width="16" height="16" viewBox="0 0 16 16" fill="none" xmlns="http://www.w3.org/2000/svg">
<path d="M11.3334 2.33334H4.66671C2.66671 2.33334 1.33337 3.33334 1.33337 5.66668V10.3333C1.33337 12.6667 2.66671 13.6667 4.66671 13.6667H11.3334C13.3334 13.6667 14.6667 12.6667 14.6667 10.3333V5.66668C14.6667 3.33334 13.3334 2.33334 11.3334 2.33334ZM4.16671 9.66668C4.16671 9.94001 3.94004 10.1667 3.66671 10.1667C3.39337 10.1667 3.16671 9.94001 3.16671 9.66668V6.33334C3.16671 6.06001 3.39337 5.83334 3.66671 5.83334C3.94004 5.83334 4.16671 6.06001 4.16671 6.33334V9.66668ZM8.00004 10C6.89337 10 6.00004 9.10668 6.00004 8.00001C6.00004 6.89334 6.89337 6.00001 8.00004 6.00001C9.10671 6.00001 10 6.89334 10 8.00001C10 9.10668 9.10671 10 8.00004 10ZM12.8334 9.66668C12.8334 9.94001 12.6067 10.1667 12.3334 10.1667C12.06 10.1667 11.8334 9.94001 11.8334 9.66668V6.33334C11.8334 6.06001 12.06 5.83334 12.3334 5.83334C12.6067 5.83334 12.8334 6.06001 12.8334 6.33334V9.66668Z" fill="#010101"/>
</svg>
