<svg width="16" height="16" viewBox="0 0 16 16" fill="none" xmlns="http://www.w3.org/2000/svg">
<path d="M13.36 4.54654L9.51999 1.85988C8.47333 1.12654 6.86666 1.16654 5.85999 1.94654L2.51999 4.55321C1.85333 5.07321 1.32666 6.13988 1.32666 6.97988V11.5799C1.32666 13.2799 2.70666 14.6665 4.40666 14.6665H11.5933C13.2933 14.6665 14.6733 13.2865 14.6733 11.5865V7.06654C14.6733 6.16654 14.0933 5.05988 13.36 4.54654ZM8.49999 11.9999C8.49999 12.2732 8.27333 12.4999 7.99999 12.4999C7.72666 12.4999 7.49999 12.2732 7.49999 11.9999V9.99988C7.49999 9.72654 7.72666 9.49988 7.99999 9.49988C8.27333 9.49988 8.49999 9.72654 8.49999 9.99988V11.9999Z" fill="#010101"/>
</svg>
