<svg width="16" height="16" viewBox="0 0 16 16" fill="none" xmlns="http://www.w3.org/2000/svg">
<path d="M8.86657 5.40667L9.74657 7.16667C9.86657 7.40667 10.1866 7.64667 10.4532 7.68667L12.0466 7.95334C13.0666 8.12667 13.3066 8.86001 12.5732 9.59334L11.3332 10.84C11.1266 11.0467 11.0066 11.4533 11.0732 11.7467L11.4266 13.2867C11.7066 14.5 11.0599 14.9733 9.98657 14.34L8.49323 13.4533C8.2199 13.2933 7.7799 13.2933 7.50657 13.4533L6.00657 14.3333C4.93323 14.9667 4.28657 14.4933 4.56657 13.28L4.9199 11.74C4.98657 11.4533 4.86657 11.0467 4.6599 10.8333L3.42657 9.60001C2.69323 8.86667 2.93323 8.12667 3.95323 7.96001L5.54657 7.69334C5.81323 7.64667 6.13323 7.41334 6.25323 7.17334L7.13323 5.41334C7.60657 4.45334 8.39323 4.45334 8.86657 5.40667Z" fill="#010101"/>
<path d="M4 6.50001C3.72667 6.50001 3.5 6.27334 3.5 6.00001V1.33334C3.5 1.06001 3.72667 0.833344 4 0.833344C4.27333 0.833344 4.5 1.06001 4.5 1.33334V6.00001C4.5 6.27334 4.27333 6.50001 4 6.50001Z" fill="#010101"/>
<path d="M12 6.50001C11.7267 6.50001 11.5 6.27334 11.5 6.00001V1.33334C11.5 1.06001 11.7267 0.833344 12 0.833344C12.2733 0.833344 12.5 1.06001 12.5 1.33334V6.00001C12.5 6.27334 12.2733 6.50001 12 6.50001Z" fill="#010101"/>
<path d="M8 3.16668C7.72667 3.16668 7.5 2.94001 7.5 2.66668V1.33334C7.5 1.06001 7.72667 0.833344 8 0.833344C8.27333 0.833344 8.5 1.06001 8.5 1.33334V2.66668C8.5 2.94001 8.27333 3.16668 8 3.16668Z" fill="#010101"/>
</svg>
