<svg width="16" height="16" viewBox="0 0 16 16" fill="none" xmlns="http://www.w3.org/2000/svg">
<path d="M8.86656 5.40668L9.74656 7.16668C9.86656 7.40668 10.1866 7.64668 10.4532 7.68668L12.0466 7.95334C13.0666 8.12668 13.3066 8.86001 12.5732 9.59335L11.3332 10.8333C11.1266 11.04 11.0066 11.4467 11.0732 11.74L11.4266 13.28C11.7066 14.4933 11.0599 14.9667 9.98657 14.3333L8.49322 13.4467C8.21989 13.2867 7.7799 13.2867 7.50657 13.4467L6.01322 14.3333C4.93989 14.9667 4.29322 14.4933 4.57322 13.28L4.92657 11.74C4.99324 11.4533 4.87323 11.0467 4.66656 10.8333L3.42657 9.59335C2.69324 8.86001 2.93322 8.12001 3.95322 7.95334L5.54657 7.68668C5.81323 7.64001 6.13323 7.40668 6.25323 7.16668L7.13324 5.40668C7.60657 4.45335 8.39322 4.45335 8.86656 5.40668Z" stroke="#58586C" stroke-width="1.5" stroke-linecap="round" stroke-linejoin="round"/>
<path d="M4 6.00001V1.33334" stroke="#58586C" stroke-width="1.5" stroke-linecap="round" stroke-linejoin="round"/>
<path d="M12 6.00001V1.33334" stroke="#58586C" stroke-width="1.5" stroke-linecap="round" stroke-linejoin="round"/>
<path d="M8 2.66668V1.33334" stroke="#58586C" stroke-width="1.5" stroke-linecap="round" stroke-linejoin="round"/>
</svg>
