<svg width="16" height="16" viewBox="0 0 16 16" fill="none" xmlns="http://www.w3.org/2000/svg">
<path d="M6.71343 1.88001L2.09343 5.58C1.57343 5.99333 1.2401 6.86669 1.35343 7.52002L2.2401 12.8267C2.4001 13.7733 3.30676 14.54 4.26676 14.54H11.7334C12.6868 14.54 13.6001 13.7667 13.7601 12.8267L14.6468 7.52002C14.7534 6.86669 14.4201 5.99333 13.9068 5.58L9.28676 1.88668C8.57342 1.31335 7.4201 1.31334 6.71343 1.88001Z" stroke="#58586C" stroke-width="1.5" stroke-linecap="round" stroke-linejoin="round"/>
<path d="M7.99992 10.3333C8.92039 10.3333 9.66659 9.58714 9.66659 8.66667C9.66659 7.74619 8.92039 7 7.99992 7C7.07944 7 6.33325 7.74619 6.33325 8.66667C6.33325 9.58714 7.07944 10.3333 7.99992 10.3333Z" stroke="#58586C" stroke-width="1.5" stroke-linecap="round" stroke-linejoin="round"/>
</svg>
