<svg width="16" height="16" viewBox="0 0 16 16" fill="none" xmlns="http://www.w3.org/2000/svg">
<path d="M13.9068 5.58001L9.28676 1.88668C8.57343 1.31334 7.4201 1.31334 6.71343 1.88001L2.09343 5.58001C1.57343 5.99334 1.2401 6.86668 1.35343 7.52001L2.2401 12.8267C2.4001 13.7733 3.30676 14.54 4.26676 14.54H11.7334C12.6868 14.54 13.6001 13.7667 13.7601 12.8267L14.6468 7.52001C14.7534 6.86668 14.4201 5.99334 13.9068 5.58001ZM8.0001 10.3333C7.0801 10.3333 6.33343 9.58668 6.33343 8.66668C6.33343 7.74668 7.0801 7.00001 8.0001 7.00001C8.9201 7.00001 9.66676 7.74668 9.66676 8.66668C9.66676 9.58668 8.9201 10.3333 8.0001 10.3333Z" fill="#010101"/>
</svg>
