<svg width="16" height="16" viewBox="0 0 16 16" fill="none" xmlns="http://www.w3.org/2000/svg">
<path d="M10.7934 1.33334H5.20671C2.78004 1.33334 1.33337 2.78001 1.33337 5.20668V10.7867C1.33337 13.22 2.78004 14.6667 5.20671 14.6667H10.7867C13.2134 14.6667 14.66 13.22 14.66 10.7933V5.20668C14.6667 2.78001 13.22 1.33334 10.7934 1.33334ZM11.2534 7.68668C11.2534 7.94668 11.0467 8.15334 10.7867 8.15334C10.5267 8.15334 10.32 7.94668 10.32 7.68668V7.56668L8.50671 9.38001C8.40671 9.48001 8.27337 9.52668 8.13337 9.51334C7.99337 9.50001 7.86671 9.42668 7.79337 9.30668L7.11337 8.29334L5.52671 9.88001C5.43337 9.97334 5.32004 10.0133 5.20004 10.0133C5.08004 10.0133 4.96004 9.96668 4.87337 9.88001C4.69337 9.70001 4.69337 9.40668 4.87337 9.22001L6.86004 7.23334C6.96004 7.13334 7.09337 7.08668 7.23337 7.10001C7.37337 7.11334 7.50004 7.18668 7.57337 7.30668L8.25337 8.32001L9.66004 6.91334H9.54004C9.28004 6.91334 9.07337 6.70668 9.07337 6.44668C9.07337 6.18668 9.28004 5.98001 9.54004 5.98001H10.78C10.84 5.98001 10.9 5.99334 10.96 6.01334C11.0734 6.06001 11.1667 6.15334 11.2134 6.26668C11.24 6.32668 11.2467 6.38668 11.2467 6.44668V7.68668H11.2534Z" fill="#010101"/>
</svg>
