<svg width="16" height="16" viewBox="0 0 16 16" fill="none" xmlns="http://www.w3.org/2000/svg">
<path d="M11.4508 5.77566C12.4797 6.51377 13.7402 6.94806 15.1015 6.94806V4.31908C14.8439 4.31914 14.5869 4.29218 14.3348 4.23858V6.30796C12.9736 6.30796 11.7133 5.87367 10.6841 5.13561V10.5006C10.6841 13.1844 8.5162 15.36 5.84206 15.36C4.84428 15.36 3.91688 15.0572 3.14648 14.538C4.02576 15.4403 5.25197 16 6.60857 16C9.28287 16 11.4509 13.8245 11.4509 11.1405V5.77566H11.4508ZM12.3966 3.12334C11.8708 2.54683 11.5255 1.80179 11.4508 0.978127V0.639984H10.7243C10.9072 1.68686 11.5309 2.58126 12.3966 3.12334ZM4.83788 12.4785C4.54409 12.092 4.38533 11.6191 4.38604 11.1328C4.38604 9.90536 5.37765 8.91009 6.60102 8.91009C6.82901 8.91004 7.05564 8.94507 7.27292 9.01426V6.32652C7.019 6.2916 6.76273 6.27677 6.50657 6.28221V8.37421C6.28913 8.30503 6.0624 8.26988 5.83435 8.2701C4.61098 8.2701 3.61943 9.26526 3.61943 10.4929C3.61943 11.3609 4.11506 12.1125 4.83788 12.4785Z" fill="#FF004F"/>
<path d="M10.6833 5.13556C11.7125 5.87362 12.9728 6.30791 14.334 6.30791V4.23853C13.5742 4.0761 12.9015 3.67761 12.3958 3.12334C11.5301 2.5812 10.9064 1.68681 10.7235 0.639984H8.81508V11.1404C8.81076 12.3646 7.82085 13.3558 6.6001 13.3558C5.88074 13.3558 5.24165 13.0116 4.83691 12.4785C4.11415 12.1125 3.61851 11.3609 3.61851 10.493C3.61851 9.26542 4.61006 8.27016 5.83343 8.27016C6.06783 8.27016 6.29374 8.30678 6.50566 8.37427V6.28227C3.8785 6.33674 1.76562 8.49101 1.76562 11.1405C1.76562 12.4631 2.29178 13.662 3.14573 14.5381C3.91612 15.0572 4.84352 15.36 5.84131 15.36C8.5155 15.36 10.6834 13.1844 10.6834 10.5006V5.13556H10.6833Z" fill="#010101"/>
<path d="M14.335 4.23853V3.67899C13.6498 3.68003 12.9781 3.48746 12.3968 3.12329C12.9114 3.68871 13.589 4.07858 14.335 4.23853ZM10.7245 0.639989C10.707 0.539941 10.6936 0.439234 10.6843 0.338143V0H8.04935V10.5005C8.04513 11.7245 7.05528 12.7157 5.83442 12.7157C5.476 12.7157 5.13759 12.6303 4.8379 12.4786C5.24264 13.0116 5.88173 13.3557 6.6011 13.3557C7.82173 13.3557 8.81181 12.3646 8.81607 11.1405V0.639989H10.7245ZM6.50676 6.28227V5.68659C6.28658 5.65639 6.06461 5.64124 5.84235 5.64135C3.16794 5.64129 1 7.81693 1 10.5005C1 12.183 1.85204 13.6658 3.14678 14.538C2.29283 13.662 1.76667 12.463 1.76667 11.1404C1.76667 8.49101 3.87949 6.33674 6.50676 6.28227Z" fill="#00F2EA"/>
</svg>
