<svg width="16" height="16" viewBox="0 0 16 16" fill="none" xmlns="http://www.w3.org/2000/svg">
<g clip-path="url(#clip0_36549_11814)">
<path d="M13.6429 2.32515C12.1455 0.826562 10.1542 0.000842306 8.0326 0C3.6612 0 0.103405 3.55643 0.101655 7.92788C0.101094 9.32522 0.466287 10.6892 1.1603 11.8915L0.0351562 16L4.23945 14.8975C5.39786 15.5291 6.70205 15.862 8.02944 15.8625H8.0327C12.4037 15.8625 15.9618 12.3057 15.9636 7.93418C15.9644 5.81574 15.1402 3.82375 13.6429 2.32515ZM8.0327 14.5235H8.03C6.84717 14.523 5.68703 14.2054 4.67495 13.605L4.43422 13.4622L1.93933 14.1164L2.60527 11.6847L2.44849 11.4354C1.78864 10.3862 1.44014 9.1735 1.44066 7.92839C1.44209 4.29505 4.39921 1.33905 8.03525 1.33905C9.79591 1.33972 11.451 2.02609 12.6956 3.27165C13.9401 4.5172 14.6251 6.1729 14.6245 7.93368C14.6231 11.5673 11.666 14.5235 8.0327 14.5235ZM11.6485 9.58813C11.4503 9.48897 10.476 9.0097 10.2944 8.94359C10.1127 8.87746 9.98063 8.84441 9.84848 9.04276C9.71641 9.24107 9.33664 9.6873 9.221 9.8195C9.10541 9.95172 8.98982 9.96827 8.79166 9.86909C8.59348 9.76993 7.95497 9.56074 7.19806 8.88584C6.60899 8.3606 6.21125 7.71181 6.09566 7.51346C5.98007 7.31513 6.08337 7.20794 6.18257 7.10915C6.2717 7.02041 6.38072 6.87778 6.47981 6.7621C6.57888 6.64645 6.61193 6.56377 6.67797 6.43157C6.74404 6.29935 6.711 6.18365 6.66145 6.0845C6.61193 5.98534 6.21559 5.01025 6.05045 4.61361C5.88962 4.22732 5.72621 4.27959 5.60457 4.27352C5.48911 4.26777 5.35687 4.26656 5.22478 4.26656C5.09269 4.26656 4.87799 4.31613 4.69635 4.51446C4.51471 4.71279 4.00279 5.19206 4.00279 6.16713C4.00279 7.1422 4.71285 8.08422 4.81194 8.21642C4.91103 8.34864 6.20928 10.3496 8.19717 11.2077C8.66998 11.4118 9.03909 11.5337 9.3269 11.625C9.80161 11.7758 10.2336 11.7545 10.5751 11.7035C10.9558 11.6467 11.7475 11.2243 11.9127 10.7615C12.0778 10.2988 12.0778 9.90215 12.0283 9.81952C11.9787 9.73689 11.8466 9.6873 11.6485 9.58813Z" fill="#32C030"/>
</g>
<defs>
<clipPath id="clip0_36549_11814">
<rect width="16" height="16" fill="white"/>
</clipPath>
</defs>
</svg>
